# xmcd
#
# Track frame offsets: 
#        150
#        15126
#        26064
#        39044
#        57252
#        74521
#        95401
#        110507
#        113025
#        128118
#        134911
#        151654
#        178183
#        195069
#        218430
#        238107
#        267479
#        292739
#        308696
#
# Disc length: 4159 seconds
#
# Revision: 2
# Processed by: cddbd v1.5.2PL0 Copyright (c) Steve Scherf et al.
# Submitted via: ExactAudioCopy v0.99pb5
#
DISCID=fa103d13
DTITLE=Albie Donnely's Supercharge - Big Blow...
DYEAR=1900
DGENRE=Blues
TTITLE0=Pink Champangne
TTITLE1=Swing brother swing
TTITLE2=Mellow Saxophone
TTITLE3=Eat that chicken
TTITLE4=Memphis soul stew
TTITLE5=Sir la Dude
TTITLE6=I' a boogie man
TTITLE7=Godbye Uwe
TTITLE8=Fool for you
TTITLE9=Eve
TTITLE10=Every time we say goodbye
TTITLE11=Rainy night in Georgia
TTITLE12=Circles
TTITLE13=I ain't got nothing but the Blues
TTITLE14=Mockingbird
TTITLE15=Unchain my Heart
TTITLE16=Beakin up someones home
TTITLE17=Ganster of love
TTITLE18=Crazy Frites
EXTD=
EXTT0=
EXTT1=
EXTT2=
EXTT3=
EXTT4=
EXTT5=
EXTT6=
EXTT7=
EXTT8=
EXTT9=
EXTT10=
EXTT11=Live
EXTT12=Live
EXTT13=Live
EXTT14=Live
EXTT15=Live
EXTT16=Live
EXTT17=Live
EXTT18=Live
PLAYORDER=
